<svg width="135" height="129" viewBox="0 0 135 129" fill="none" xmlns="http://www.w3.org/2000/svg">
<path d="M26.4641 128.216C25.5521 128.216 24.6401 128.184 23.7281 128.12C22.8321 128.072 21.8961 127.944 20.9201 127.736V111.608C21.6881 111.464 22.5281 111.36 23.4401 111.296C24.3521 111.216 25.2001 111.176 25.9841 111.176C27.0401 111.176 28.0081 111.256 28.8881 111.416C29.7841 111.56 30.5521 111.816 31.1921 112.184C31.8321 112.552 32.3281 113.04 32.6801 113.648C33.0481 114.24 33.2321 114.976 33.2321 115.856C33.2321 117.184 32.5921 118.232 31.3121 119C32.3681 119.4 33.0881 119.944 33.4721 120.632C33.8561 121.32 34.0481 122.096 34.0481 122.96C34.0481 124.704 33.4081 126.016 32.1281 126.896C30.8641 127.776 28.9761 128.216 26.4641 128.216ZM24.5681 120.752V125.048C24.8401 125.08 25.1361 125.104 25.4561 125.12C25.7761 125.136 26.1281 125.144 26.5121 125.144C27.6321 125.144 28.5361 124.984 29.2241 124.664C29.9121 124.344 30.2561 123.752 30.2561 122.888C30.2561 122.12 29.9681 121.576 29.3921 121.256C28.8161 120.92 27.9921 120.752 26.9201 120.752H24.5681ZM24.5681 117.896H26.3921C27.5441 117.896 28.3681 117.752 28.8641 117.464C29.3601 117.16 29.6081 116.68 29.6081 116.024C29.6081 115.352 29.3521 114.88 28.8401 114.608C28.3281 114.336 27.5761 114.2 26.5841 114.2C26.2641 114.2 25.9201 114.208 25.5521 114.224C25.1841 114.224 24.8561 114.24 24.5681 114.272V117.896Z" fill="white"/>
<path d="M47.9467 128C47.7707 127.424 47.5707 126.832 47.3467 126.224C47.1387 125.616 46.9307 125.008 46.7227 124.4H40.2427C40.0347 125.008 39.8187 125.616 39.5947 126.224C39.3867 126.832 39.1947 127.424 39.0187 128H35.1307C35.7547 126.208 36.3467 124.552 36.9067 123.032C37.4667 121.512 38.0107 120.08 38.5387 118.736C39.0827 117.392 39.6107 116.12 40.1227 114.92C40.6507 113.704 41.1947 112.52 41.7547 111.368H45.3307C45.8747 112.52 46.4107 113.704 46.9387 114.92C47.4667 116.12 47.9947 117.392 48.5227 118.736C49.0667 120.08 49.6187 121.512 50.1787 123.032C50.7387 124.552 51.3307 126.208 51.9547 128H47.9467ZM43.4587 115.136C43.3787 115.376 43.2587 115.704 43.0987 116.12C42.9387 116.536 42.7547 117.016 42.5467 117.56C42.3387 118.104 42.1067 118.704 41.8507 119.36C41.6107 120.016 41.3627 120.704 41.1067 121.424H45.8347C45.5787 120.704 45.3307 120.016 45.0907 119.36C44.8507 118.704 44.6187 118.104 44.3947 117.56C44.1867 117.016 44.0027 116.536 43.8427 116.12C43.6827 115.704 43.5547 115.376 43.4587 115.136Z" fill="white"/>
<path d="M59.6516 128.216C58.7396 128.216 57.8276 128.184 56.9156 128.12C56.0196 128.072 55.0836 127.944 54.1076 127.736V111.608C54.8756 111.464 55.7156 111.36 56.6276 111.296C57.5396 111.216 58.3876 111.176 59.1716 111.176C60.2276 111.176 61.1956 111.256 62.0756 111.416C62.9716 111.56 63.7396 111.816 64.3796 112.184C65.0196 112.552 65.5156 113.04 65.8676 113.648C66.2356 114.24 66.4196 114.976 66.4196 115.856C66.4196 117.184 65.7796 118.232 64.4996 119C65.5556 119.4 66.2756 119.944 66.6596 120.632C67.0436 121.32 67.2356 122.096 67.2356 122.96C67.2356 124.704 66.5956 126.016 65.3156 126.896C64.0516 127.776 62.1636 128.216 59.6516 128.216ZM57.7556 120.752V125.048C58.0276 125.08 58.3236 125.104 58.6436 125.12C58.9636 125.136 59.3156 125.144 59.6996 125.144C60.8196 125.144 61.7236 124.984 62.4116 124.664C63.0996 124.344 63.4436 123.752 63.4436 122.888C63.4436 122.12 63.1556 121.576 62.5796 121.256C62.0036 120.92 61.1796 120.752 60.1076 120.752H57.7556ZM57.7556 117.896H59.5796C60.7316 117.896 61.5556 117.752 62.0516 117.464C62.5476 117.16 62.7956 116.68 62.7956 116.024C62.7956 115.352 62.5396 114.88 62.0276 114.608C61.5156 114.336 60.7636 114.2 59.7716 114.2C59.4516 114.2 59.1076 114.208 58.7396 114.224C58.3716 114.224 58.0436 114.24 57.7556 114.272V117.896Z" fill="white"/>
<path d="M75.5083 118.208C76.1803 117.072 76.8203 115.936 77.4283 114.8C78.0363 113.664 78.5963 112.52 79.1083 111.368H83.2363C82.3243 113.16 81.3803 114.896 80.4043 116.576C79.4283 118.256 78.3963 119.944 77.3083 121.64V128H73.5643V121.688C72.4763 119.992 71.4363 118.296 70.4443 116.6C69.4683 114.904 68.5243 113.16 67.6123 111.368H71.9563C72.4683 112.52 73.0203 113.664 73.6123 114.8C74.2043 115.936 74.8363 117.072 75.5083 118.208Z" fill="white"/>
<path d="M85.2795 128V111.368H96.4155V114.512H89.0235V117.992H95.5995V121.136H89.0235V128H85.2795Z" fill="white"/>
<path d="M99.0607 111.368H102.805V128H99.0607V111.368Z" fill="white"/>
<path d="M116.206 128C115.742 127.072 115.23 126.136 114.67 125.192C114.126 124.232 113.494 123.256 112.774 122.264C112.55 122.552 112.262 122.952 111.91 123.464C111.574 123.976 111.23 124.52 110.878 125.096C110.542 125.672 110.222 126.224 109.918 126.752C109.614 127.28 109.39 127.696 109.246 128H104.974C105.678 126.704 106.494 125.344 107.422 123.92C108.366 122.496 109.414 120.984 110.566 119.384L105.214 111.368H109.75L112.99 116.552L116.158 111.368H120.43L115.15 119.432C116.494 121.176 117.622 122.792 118.534 124.28C119.446 125.752 120.166 126.992 120.694 128H116.206Z" fill="white"/>
<path d="M66.9473 14.3157C51.1602 14.3157 38.3158 27.1601 38.3158 42.9473C38.3158 58.7344 51.1602 71.5788 66.9473 71.5788C82.7345 71.5788 95.5789 58.7344 95.5789 42.9473C95.5789 27.1601 82.7345 14.3157 66.9473 14.3157ZM81.5952 25.0106C81.9168 24.6524 82.3711 24.4408 82.8534 24.4217C83.2693 24.3746 83.8041 24.5772 84.1536 24.9092C87.8653 28.4235 90.3888 32.8973 91.4442 37.8463C91.612 38.6361 91.231 39.44 90.5145 39.8104C88.7634 40.7157 86.6839 41.1542 84.6918 41.1542C82.095 41.1542 79.6344 40.4097 78.2084 38.9837C75.1747 35.9519 76.4398 30.7286 81.5952 25.0106ZM52.2996 61.1634C51.978 61.5216 51.5237 61.7348 51.0414 61.7541C51.0204 61.7558 50.9959 61.7558 50.9714 61.7558C50.5136 61.7558 50.0732 61.581 49.7412 61.2664C46.0295 57.7521 43.506 53.2784 42.4506 48.3277C42.2828 47.5379 42.6638 46.734 43.3803 46.3636C47.4137 44.2823 53.1665 44.6702 55.6864 47.1901C58.7165 50.2223 57.4513 55.4456 52.2996 61.1634ZM55.6862 38.9839C54.2603 40.4098 51.7997 41.1544 49.2029 41.1544C47.2107 41.1544 45.1346 40.7157 43.3802 39.8106C42.6637 39.4402 42.2827 38.6363 42.4504 37.8464C43.506 32.8974 46.0293 28.4237 49.7411 24.9094C50.0905 24.5774 50.6044 24.3712 51.0412 24.4219C51.5236 24.4412 51.9779 24.6526 52.2995 25.0107C57.4548 30.7286 58.7199 35.9519 55.6862 38.9839ZM74.5735 66.8098C72.0955 67.5997 69.53 67.9999 66.9473 67.9999C64.3646 67.9999 61.799 67.5998 59.3212 66.8098C58.5347 66.5582 58.021 65.8033 58.0769 64.9802C58.5243 58.5405 62.3374 53.6841 66.9473 53.6841C71.5573 53.6841 75.3704 58.5405 75.8178 64.98C75.8736 65.8033 75.36 66.5582 74.5735 66.8098ZM59.7894 42.9473C59.7894 38.9996 63.0014 35.7893 66.9473 35.7893C70.8933 35.7893 74.1053 38.9995 74.1053 42.9473C74.1053 46.8951 70.8933 50.1052 66.9473 50.1052C63.0014 50.1052 59.7894 46.8949 59.7894 42.9473ZM75.8178 21.0559C75.3704 27.4938 71.5573 32.3502 66.9473 32.3502C62.3374 32.3502 58.5243 27.4938 58.0769 21.0559C58.021 20.2329 58.5312 19.4779 59.3176 19.228C64.2737 17.6446 69.6211 17.6446 74.577 19.228C75.3635 19.4779 75.8736 20.2329 75.8178 21.0559ZM91.4442 48.043C90.3886 52.9937 87.8653 57.4675 84.1536 60.9818C83.8216 61.2963 83.3812 61.4711 82.9234 61.4711C82.8989 61.4711 82.8744 61.4711 82.8534 61.4694C82.3711 61.4501 81.9168 61.2388 81.5952 60.8806C76.44 55.1627 75.1747 49.9376 78.2084 46.9056C80.7284 44.384 86.4778 44.0011 90.5145 46.0791C91.231 46.4493 91.612 47.2532 91.4442 48.043Z" fill="white"/>
<path d="M66.9474 0C43.2648 0 24.0001 19.2665 24.0001 42.9473C24.0001 66.628 43.2648 85.8945 66.9474 85.8945C90.6299 85.8945 109.895 66.628 109.895 42.9473C109.895 19.2665 90.6299 0 66.9474 0ZM66.9474 75.1577C49.1855 75.1577 34.7369 60.7075 34.7369 42.9473C34.7369 25.1871 49.1855 10.7368 66.9474 10.7368C84.7093 10.7368 99.1578 25.1871 99.1578 42.9473C99.1578 60.7075 84.7093 75.1577 66.9474 75.1577Z" fill="white"/>
<path d="M32.3279 95.1042H102.672C105.69 100.491 111.449 104.133 118.063 104.133C125.433 104.133 131.747 99.6124 134.381 93.1922H118.063V79.8078H134.381C131.747 73.3876 125.433 68.8667 118.063 68.8667C111.362 68.8667 105.535 72.6042 102.551 78.1082H32.4493C29.4654 72.6042 23.6381 68.8665 16.9375 68.8667C9.56754 68.8667 3.25353 73.3876 0.619144 79.8078H16.9373L16.9373 93.1922L0.619141 93.1921C3.25352 99.6124 9.56754 104.133 16.9375 104.133C23.5505 104.133 29.3102 100.491 32.3279 95.1042Z" fill="white"/>
</svg>
